<?xml version="1.0" encoding="utf-8"?>
<!-- Generator: Adobe Illustrator 19.0.0, SVG Export Plug-In . SVG Version: 6.00 Build 0)  -->
<svg version="1.1" id="Слой_1" xmlns="http://www.w3.org/2000/svg" xmlns:xlink="http://www.w3.org/1999/xlink" x="0px" y="0px"
	 width="1000px" height="1000px" viewBox="0 0 1000 1000" style="enable-background:new 0 0 1000 1000;" xml:space="preserve">
<style type="text/css">
	.st0{fill:#FFFFFF;}
	.st1{fill:#AF0000;}
	.st2{fill:none;stroke:#C1C1C1;stroke-miterlimit:10;}
	.st3{fill:#505050;}
	.st4{fill:#FF9600;}
	.st5{fill:none;stroke:#505050;stroke-width:2;stroke-miterlimit:10;}
</style>
<g id="XMLID_78_">
	<g id="XMLID_12_">
		<g id="XMLID_6_">
			<g id="XMLID_8_">
				<g id="XMLID_9_">
					<path id="XMLID_187_" class="st0" d="M183.764,34.825c-1.388,0-2.395-1.604-2.395-3.815s1.007-3.815,2.395-3.815
						s2.395,1.604,2.395,3.815S185.152,34.825,183.764,34.825z"/>
					<path id="XMLID_207_" class="st0" d="M135.472,80.276c-2.887,0-5.235-2.347-5.235-5.231v-9.547l-0.241-0.126
						c-3.254-1.689-5.44-6.366-5.44-11.636c0-4.709,1.709-8.927,4.46-11.007l0.472-0.355l-0.47-0.356
						c-2.752-2.081-4.461-6.298-4.461-11.007c0-6.918,3.547-12.337,8.076-12.337h51.133c4.528,0,8.076,5.419,8.076,12.337
						c0,4.709-1.709,8.927-4.461,11.007l-0.469,0.355l0.469,0.355c2.752,2.081,4.462,6.298,4.462,11.007
						c0,6.918-3.547,12.338-8.076,12.338h-14.649v1.866c0,0.259-0.102,0.505-0.286,0.691l-11.362,11.36
						c-0.184,0.185-0.429,0.286-0.689,0.286H135.472z M137.199,43.519c-1.175,1.496-5.014,7.274-5.014,18.743v12.783
						c0,1.81,1.475,3.283,3.287,3.283h20.331v-6.127c0-2.887,2.349-5.236,5.235-5.236h6.127v-4.708
						c0-10.295,2.047-15.591,3.765-18.221l0.45-0.69h-34.048L137.199,43.519z M161.039,68.914c-1.812,0-3.287,1.475-3.287,3.287
						v4.748l8.035-8.035H161.039z M183.764,43.347c-3.321,0-6.127,4.757-6.127,10.389s2.806,10.389,6.127,10.389
						s6.127-4.758,6.127-10.389S187.085,43.347,183.764,43.347z M173.973,43.45c-1.138,0.94-4.858,5.077-4.858,18.807v1.866h10.243
						l-0.604-0.73c-1.949-2.347-3.066-5.867-3.066-9.657s1.117-7.31,3.065-9.657l0.604-0.731h-5.261L173.973,43.45z M132.631,43.347
						c-3.322,0-6.128,4.757-6.128,10.389c0,3.562,1.137,6.957,2.966,8.861l0.768,0.798v-1.107c0-9.276,2.315-15.052,4.257-18.264
						l0.409-0.677H132.631z M183.764,20.622c-3.321,0-6.127,4.757-6.127,10.388c0,5.631,2.806,10.389,6.127,10.389
						s6.127-4.757,6.127-10.389C189.892,25.379,187.085,20.622,183.764,20.622z M132.631,20.622c-3.322,0-6.128,4.757-6.128,10.388
						c0,5.631,2.807,10.389,6.128,10.389h46.726l-0.603-0.731c-1.949-2.348-3.066-5.868-3.066-9.658c0-3.79,1.117-7.31,3.065-9.657
						l0.604-0.731H132.631z"/>
					<path id="XMLID_180_" class="st0" d="M183.764,57.551c-1.388,0-2.395-1.604-2.395-3.815c0-2.21,1.007-3.815,2.395-3.815
						s2.395,1.604,2.395,3.815C186.159,55.946,185.152,57.551,183.764,57.551z"/>
				</g>
			</g>
		</g>
		<g id="XMLID_11_">
			<path id="XMLID_188_" class="st0" d="M267.579,53.754c-5.387,0-10.024-3.654-11.276-8.887c-0.065-0.271-0.021-0.55,0.124-0.785
				c0.145-0.236,0.373-0.402,0.643-0.467c0.08-0.019,0.161-0.029,0.243-0.029c0.481,0,0.896,0.328,1.009,0.797
				c1.028,4.293,4.834,7.292,9.257,7.292h0.213c5.248,0,9.518-4.27,9.518-9.518v-3.723h-24.747c-0.573,0-1.039-0.465-1.039-1.038
				s0.466-1.038,1.039-1.038h1.747v-4.531c0-4.871,2.672-9.341,6.975-11.666l0.283-0.155v-3.137c0-0.572,0.466-1.038,1.039-1.038
				s1.039,0.466,1.039,1.038v2.28l0.675-0.171c1.057-0.267,2.147-0.402,3.241-0.402h0.247c1.094,0,2.184,0.135,3.24,0.402
				l0.675,0.171v-2.28c0-0.572,0.466-1.038,1.04-1.038c0.573,0,1.039,0.466,1.039,1.038v3.137l0.284,0.155
				c4.302,2.325,6.973,6.795,6.973,11.666v4.531h1.748c0.573,0,1.039,0.466,1.039,1.039s-0.466,1.039-1.039,1.039h-3.286
				l-0.128,0.493l-0.006,3.229c0,6.394-5.202,11.596-11.596,11.596H267.579z M260.692,23.026c-2.734,2.138-4.303,5.346-4.303,8.802
				v4.531h22.593v-4.531c0-3.457-1.568-6.665-4.303-8.803l-0.876-0.688v1.734c0,0.573-0.466,1.039-1.039,1.039
				c-0.574,0-1.04-0.466-1.04-1.039v-2.713l-0.368-0.124c-1.15-0.385-2.344-0.581-3.547-0.581h-0.247
				c-1.202,0-2.395,0.195-3.546,0.58l-0.37,0.125v2.713c0,0.573-0.466,1.039-1.039,1.039s-1.039-0.466-1.039-1.039v-1.734
				L260.692,23.026z"/>
			<path id="XMLID_194_" class="st0" d="M240.163,83.117c-0.574,0-1.04-0.466-1.04-1.039V69.189c0-6.449,5.246-11.695,11.695-11.695
				h32.552c6.448,0,11.694,5.246,11.694,11.695v12.889c0,0.573-0.466,1.039-1.039,1.039H240.163z M283.847,81.039h9.14V69.187
				c0-4.902-3.67-9.01-8.538-9.556l-0.602-0.069V81.039z M251.379,66.497c0.573,0,1.04,0.466,1.04,1.04v13.502h29.35V59.572h-23.417
				V70.65h17.485v-6.488c0-0.573,0.466-1.039,1.039-1.039c0.573,0,1.039,0.466,1.039,1.039v7.527c0,0.573-0.466,1.039-1.039,1.039
				h-19.563c-0.573,0-1.039-0.466-1.039-1.039V59.572h-5.456c-5.302,0-9.616,4.314-9.616,9.617v11.85h9.138V67.537
				C250.34,66.963,250.806,66.497,251.379,66.497z"/>
			<path id="XMLID_179_" class="st0" d="M257.313,77.562c-0.573,0-1.039-0.466-1.039-1.04c0-0.573,0.466-1.039,1.039-1.039h19.563
				c0.573,0,1.039,0.466,1.039,1.039c0,0.573-0.466,1.04-1.039,1.04H257.313z"/>
		</g>
		<g id="XMLID_3_">
			<path id="XMLID_189_" class="st0" d="M462.268,83.117c-2.951,0-5.352-2.401-5.352-5.352l0.001-40.664l0.004-0.106l-0.005-0.211
				c0-2.951,2.401-5.352,5.352-5.352h8.748c0.619,0,1.122,0.503,1.122,1.122s-0.503,1.122-1.122,1.122h-8.748
				c-1.714,0-3.109,1.395-3.109,3.108s1.395,3.108,3.109,3.108h22.211V35.66c0-0.619,0.503-1.122,1.122-1.122
				s1.122,0.503,1.122,1.122v4.232h19.699c2.951,0,5.353,2.401,5.353,5.352v9.959h1.562c1.838,0,3.334-1.496,3.334-3.333V36.784
				c0-1.714-1.395-3.108-3.109-3.108h-7.733c-0.618,0-1.121-0.503-1.121-1.122s0.503-1.122,1.121-1.122h7.733
				c2.951,0,5.353,2.401,5.353,5.352v40.979c0,2.951-2.401,5.352-5.353,5.352L462.268,83.117z M459.159,77.765
				c0,1.714,1.395,3.109,3.109,3.109h44.123c1.774-0.037,3.14-1.431,3.14-3.109v-6.569h-12.099c-4.409,0-7.996-3.587-7.996-7.996
				s3.587-7.996,7.996-7.996h12.099v-9.959c0-1.714-1.395-3.108-3.109-3.108h-44.153c-0.992,0-1.961-0.275-2.804-0.795l-0.305-0.188
				V77.765z M511.773,77.765c0,0.991-0.274,1.96-0.794,2.802l-0.188,0.305h2.769c1.715,0,3.109-1.395,3.109-3.109v-7.954
				l-0.317,0.229c-1.051,0.758-2.291,1.158-3.585,1.158h-0.993V77.765z M497.432,57.447c-3.172,0-5.752,2.581-5.752,5.752
				s2.581,5.752,5.752,5.752h15.335c2.151,0,3.902-1.75,3.902-3.901v-8.699l-0.309,0.2c-0.904,0.586-1.95,0.895-3.025,0.895H497.432
				z"/>
			<path id="XMLID_184_" class="st0" d="M494.92,36.47c-3.314,0-6.011-2.696-6.011-6.011s2.696-6.011,6.011-6.011
				c3.315,0,6.012,2.696,6.012,6.011S498.235,36.47,494.92,36.47z M494.92,26.691c-2.077,0-3.767,1.69-3.767,3.768
				s1.69,3.768,3.767,3.768s3.768-1.69,3.768-3.768S496.997,26.691,494.92,26.691z"/>
			<path id="XMLID_181_" class="st0" d="M482.097,27.854c-3.315,0-6.011-2.696-6.011-6.011c0-3.314,2.696-6.011,6.011-6.011
				c3.314,0,6.011,2.696,6.011,6.011C488.108,25.158,485.412,27.854,482.097,27.854z M482.097,18.076
				c-2.077,0-3.768,1.69-3.768,3.768s1.69,3.768,3.768,3.768s3.768-1.69,3.768-3.768S484.174,18.076,482.097,18.076z"/>
			<path id="XMLID_178_" class="st0" d="M502.588,22.35c-0.619,0-1.122-0.503-1.122-1.122v-0.95h-0.95
				c-0.619,0-1.122-0.503-1.122-1.122s0.503-1.122,1.122-1.122h0.95v-0.95c0-0.619,0.503-1.122,1.122-1.122
				c0.618,0,1.121,0.503,1.121,1.122v0.95h0.95c0.619,0,1.122,0.503,1.122,1.122s-0.503,1.122-1.122,1.122h-0.95v0.95
				C503.709,21.847,503.206,22.35,502.588,22.35z"/>
			<path id="XMLID_177_" class="st0" d="M477.823,36.352c-0.619,0-1.122-0.503-1.122-1.122v-5.354c0-0.619,0.503-1.122,1.122-1.122
				s1.122,0.503,1.122,1.122v5.354C478.944,35.849,478.441,36.352,477.823,36.352z"/>
			<path id="XMLID_176_" class="st0" d="M498.234,64.8c-0.377,0-0.748-0.153-1.015-0.421c-0.267-0.266-0.419-0.635-0.419-1.014
				s0.152-0.749,0.419-1.015c0.269-0.267,0.639-0.42,1.015-0.42c0.377,0,0.748,0.153,1.017,0.42c0.267,0.267,0.42,0.637,0.42,1.015
				s-0.153,0.747-0.42,1.014C498.983,64.646,498.613,64.8,498.234,64.8z"/>
			<path id="XMLID_175_" class="st0" d="M465.484,63.332c-0.619,0-1.122-0.503-1.122-1.122V51.325c0-0.619,0.503-1.122,1.122-1.122
				s1.122,0.503,1.122,1.122v10.884C466.606,62.828,466.103,63.332,465.484,63.332z"/>
			<path id="XMLID_174_" class="st0" d="M465.484,67.893c-0.295,0-0.584-0.12-0.793-0.329c-0.209-0.209-0.329-0.498-0.329-0.793
				c0-0.295,0.12-0.584,0.329-0.793c0.208-0.209,0.498-0.329,0.793-0.329c0.295,0,0.584,0.12,0.793,0.329
				c0.208,0.208,0.328,0.497,0.328,0.793c0,0.296-0.12,0.585-0.328,0.793C466.068,67.773,465.779,67.893,465.484,67.893z"/>
		</g>
		<g id="XMLID_5_">
			<path id="XMLID_172_" class="st0" d="M16.562,27.844c-0.512,0-0.928-0.416-0.928-0.928s0.416-0.928,0.928-0.928h6.768
				c0.512,0,0.928,0.416,0.928,0.928s-0.416,0.928-0.928,0.928H16.562z"/>
			<path id="XMLID_165_" class="st0" d="M28.969,27.844c-0.512,0-0.928-0.416-0.928-0.928s0.416-0.928,0.928-0.928h10.152
				c0.512,0,0.928,0.416,0.928,0.928s-0.416,0.928-0.928,0.928H28.969z"/>
			<path id="XMLID_164_" class="st0" d="M16.154,40.252c-0.246,0-0.52-0.381-0.52-0.928c0-0.547,0.274-0.928,0.52-0.928h23.052
				c0.246,0,0.521,0.381,0.521,0.928c0,0.547-0.274,0.928-0.521,0.928H16.154z"/>
			<path id="XMLID_163_" class="st0" d="M16.562,47.485c-0.512,0-0.928-0.416-0.928-0.928s0.416-0.928,0.928-0.928h15.792
				c0.512,0,0.928,0.416,0.928,0.928s-0.416,0.928-0.928,0.928H16.562z"/>
			<path id="XMLID_162_" class="st0" d="M16.562,53.787c-0.512,0-0.928-0.416-0.928-0.928s0.416-0.928,0.928-0.928h15.792
				c0.512,0,0.928,0.416,0.928,0.928s-0.416,0.928-0.928,0.928H16.562z"/>
			<path id="XMLID_151_" class="st0" d="M16.562,62.811c-0.512,0-0.928-0.416-0.928-0.928s0.416-0.928,0.928-0.928h15.792
				c0.512,0,0.928,0.416,0.928,0.928s-0.416,0.928-0.928,0.928H16.562z"/>
			<path id="XMLID_149_" class="st0" d="M16.562,71.834c-0.512,0-0.928-0.416-0.928-0.928s0.416-0.928,0.928-0.928h15.792
				c0.512,0,0.928,0.416,0.928,0.928s-0.416,0.928-0.928,0.928H16.562z"/>
			<path id="XMLID_166_" class="st0" d="M13.176,83.117c-1.751,0-3.176-1.43-3.176-3.188V23.53c0-1.751,1.425-3.176,3.176-3.176
				h1.333V19.02c0-1.758,1.425-3.188,3.176-3.188h42.868c1.751,0,3.176,1.43,3.176,3.188v24.046l12.98,5.611
				c0.341,0.15,0.562,0.485,0.562,0.852v16.309c-0.012,3.639-1.789,7.069-4.754,9.173l-10.91,7.765
				c-0.312,0.221-0.679,0.338-1.059,0.338c-0.379,0-0.742-0.117-1.049-0.337l-1.067-0.758l-0.12,0.124
				c-0.605,0.628-1.411,0.974-2.27,0.974H13.176z M13.176,22.209c-0.729,0-1.322,0.593-1.322,1.321v56.398
				c0,0.735,0.599,1.333,1.334,1.333h42.856c0.218-0.015,0.413-0.072,0.595-0.17l0.284-0.153l-4.712-3.344l-4.557-3.326
				c-2.372-1.681-3.794-4.422-3.806-7.336V53.181h-0.012v-3.627c0-0.396,0.234-0.749,0.596-0.9l8.121-3.512l1.059-0.45l3.754-1.625
				v-7.328H47.013c-1.751,0-3.176-1.43-3.176-3.188V22.209H13.176z M45.691,50.142v15.697c0.013,3.042,1.498,5.905,3.973,7.659
				l10.891,7.75l10.891-7.75c2.475-1.754,3.96-4.617,3.973-7.658V50.142l-14.864-6.425L45.691,50.142z M60.556,41.776
				c0.126,0,0.251,0.025,0.373,0.076l0.947,0.431V19.02c0-0.735-0.593-1.333-1.322-1.333H17.686c-0.729,0-1.322,0.598-1.322,1.333
				v1.334l28.446-0.001c0.086,0.011,0.168,0.021,0.242,0.049l0.055,0.011c0.03,0.02,0.072,0.039,0.125,0.039
				c0.023,0.035,0.111,0.097,0.188,0.173l13.542,13.53c0.056,0.063,0.135,0.16,0.175,0.262v0.041l0.039,0.085
				c0.025,0.06,0.035,0.14,0.046,0.226l0.011,7.512l0.964-0.43C60.31,41.801,60.431,41.776,60.556,41.776z M45.691,32.55
				c0,0.748,0.581,1.334,1.322,1.334h9.039L45.691,23.51V32.55z"/>
			<path id="XMLID_152_" class="st0" d="M60.552,77.779c-0.194,0-0.38-0.06-0.538-0.172l-8.812-6.273
				c-1.78-1.26-2.848-3.313-2.858-5.493V52.495c0-0.37,0.218-0.705,0.557-0.853L60.18,46.77c0.119-0.052,0.244-0.078,0.372-0.078
				s0.253,0.026,0.371,0.077l11.281,4.873c0.338,0.147,0.556,0.482,0.556,0.852v13.346c-0.01,2.179-1.079,4.232-2.857,5.492
				l-8.812,6.273C60.933,77.719,60.746,77.779,60.552,77.779z M50.201,53.105v12.736c0.01,1.582,0.788,3.07,2.08,3.981l8.271,5.889
				l8.272-5.882c1.293-0.913,2.071-2.403,2.08-3.987V53.11l-10.352-4.476L50.201,53.105z"/>
			<path id="XMLID_4_" class="st0" d="M58.296,68.451c-0.202,0-0.394-0.064-0.556-0.186l-4.512-3.384
				c-0.264-0.198-0.404-0.525-0.365-0.854c0.04-0.328,0.253-0.612,0.557-0.742c0.116-0.049,0.238-0.075,0.364-0.075
				c0.2,0,0.398,0.066,0.558,0.186l3.793,2.845l8.461-10.578c0.177-0.222,0.442-0.349,0.726-0.349c0.212,0,0.413,0.07,0.579,0.204
				c0.4,0.32,0.465,0.905,0.145,1.305l-9.024,11.28C58.844,68.324,58.58,68.451,58.296,68.451z"/>
		</g>
		<g id="XMLID_2_">
			<g id="XMLID_129_">
				<g id="XMLID_130_">
					<path id="XMLID_155_" class="st0" d="M347.067,83.117c-2.603,0-4.72-2.117-4.72-4.72v-3.432c0-0.555,0.45-1.005,1.004-1.005
						h4.457l-0.657-0.567c-2.339-2.014-3.68-4.929-3.68-7.998c0-5.821,4.736-10.557,10.558-10.557
						c5.821,0,10.557,4.736,10.557,10.557c0,3.07-1.34,5.985-3.678,7.998l-0.658,0.567h14.124c0.555,0,1.005,0.451,1.005,1.005
						c0,0.554-0.451,1.004-1.005,1.004h-30.018v2.428c0,1.495,1.216,2.71,2.71,2.71h53.948l-0.259-0.476
						c-0.369-0.685-0.564-1.458-0.564-2.235v-2.427h-14.427c-0.555,0-1.005-0.45-1.005-1.004c0-0.555,0.451-1.005,1.005-1.005
						h15.433c0.554,0,1.004,0.451,1.004,1.005v3.431c0,1.495,1.217,2.711,2.712,2.711c1.495,0,2.71-1.216,2.71-2.711V27.981
						c0-2.373-1.93-4.303-4.302-4.303h-6.646v1.981c0,2.017-1.642,3.658-3.659,3.658c-2.017,0-3.657-1.641-3.657-3.658v-1.981
						h-22.934v1.981c0,2.017-1.641,3.658-3.659,3.658c-2.017,0-3.658-1.641-3.658-3.658v-2.131l-0.408,0.113
						c-0.09,0.025-0.18,0.037-0.268,0.037h-5.287c-2.372,0-4.302,1.93-4.302,4.303v4.701h48.152c0.554,0,1.004,0.451,1.004,1.004
						s-0.451,1.004-1.004,1.004h-48.152v15.89c0,0.554-0.451,1.004-1.005,1.004c-0.554,0-1.004-0.451-1.004-1.004V27.981
						c0-3.48,2.831-6.311,6.312-6.311h5.287c0.088,0,0.179,0.012,0.269,0.037l0.407,0.115v-2.332c0-2.017,1.641-3.657,3.658-3.657
						c2.018,0,3.659,1.64,3.659,3.657v2.181h22.934v-2.181c0-2.017,1.641-3.657,3.657-3.657c2.018,0,3.659,1.64,3.659,3.657v2.181
						h6.646c3.48,0,6.311,2.831,6.311,6.311v50.415c0,2.603-2.117,4.721-4.72,4.721H347.067z M354.029,56.847
						c-4.713,0-8.548,3.834-8.548,8.548s3.834,8.548,8.548,8.548s8.548-3.834,8.548-8.548S358.743,56.847,354.029,56.847z
						 M393.016,17.84c-0.909,0-1.648,0.74-1.648,1.649v6.17c0,0.909,0.739,1.649,1.648,1.649c0.909,0,1.649-0.74,1.649-1.649v-6.17
						C394.666,18.58,393.925,17.84,393.016,17.84z M362.767,17.84c-0.909,0-1.648,0.74-1.648,1.649v6.17
						c0,0.909,0.74,1.649,1.648,1.649c0.909,0,1.649-0.74,1.649-1.649v-6.17C364.416,18.58,363.676,17.84,362.767,17.84z"/>
				</g>
			</g>
			<g id="XMLID_126_">
				<g id="XMLID_127_">
					<path id="XMLID_20_" class="st0" d="M403.221,34.69c-0.264,0-0.524-0.107-0.712-0.294c-0.187-0.188-0.293-0.446-0.293-0.709
						c0-0.264,0.107-0.523,0.295-0.711c0.187-0.186,0.446-0.293,0.71-0.293c0.264,0,0.523,0.107,0.711,0.294
						c0.186,0.188,0.293,0.447,0.293,0.71s-0.107,0.522-0.295,0.709C403.743,34.583,403.484,34.69,403.221,34.69z"/>
				</g>
			</g>
			<g id="XMLID_123_">
				<g id="XMLID_124_">
					<path id="XMLID_19_" class="st0" d="M380.71,75.967c-0.265,0-0.524-0.106-0.711-0.293c-0.187-0.187-0.293-0.447-0.293-0.711
						c0-0.262,0.108-0.521,0.296-0.711c0.185-0.185,0.444-0.292,0.708-0.292c0.267,0,0.525,0.106,0.708,0.292
						c0.189,0.189,0.297,0.448,0.297,0.711c0,0.264-0.107,0.523-0.295,0.712C381.235,75.861,380.976,75.967,380.71,75.967z"/>
				</g>
			</g>
			<g id="XMLID_118_">
				<g id="XMLID_119_">
					<path id="XMLID_145_" class="st0" d="M372.042,65.603c-2.603,0-4.72-2.117-4.72-4.719c0-2.603,2.117-4.72,4.72-4.72
						s4.72,2.117,4.72,4.72C376.762,63.486,374.645,65.603,372.042,65.603z M372.042,58.174c-1.495,0-2.71,1.216-2.71,2.71
						s1.216,2.709,2.71,2.709s2.71-1.215,2.71-2.709S373.537,58.174,372.042,58.174z"/>
				</g>
			</g>
			<g id="XMLID_113_">
				<g id="XMLID_114_">
					<path id="XMLID_141_" class="st0" d="M384.425,65.603c-2.602,0-4.719-2.117-4.719-4.719c0-2.603,2.117-4.72,4.719-4.72
						c2.603,0,4.72,2.117,4.72,4.72C389.145,63.486,387.027,65.603,384.425,65.603z M384.425,58.174c-1.495,0-2.71,1.216-2.71,2.71
						s1.216,2.709,2.71,2.709s2.71-1.215,2.71-2.709S385.919,58.174,384.425,58.174z"/>
				</g>
			</g>
			<g id="XMLID_108_">
				<g id="XMLID_109_">
					<path id="XMLID_128_" class="st0" d="M396.809,65.603c-2.603,0-4.72-2.117-4.72-4.719c0-2.603,2.117-4.72,4.72-4.72
						s4.72,2.117,4.72,4.72C401.528,63.486,399.411,65.603,396.809,65.603z M396.809,58.174c-1.495,0-2.71,1.216-2.71,2.71
						s1.216,2.709,2.71,2.709s2.71-1.215,2.71-2.709S398.303,58.174,396.809,58.174z"/>
				</g>
			</g>
			<g id="XMLID_103_">
				<g id="XMLID_104_">
					<path id="XMLID_120_" class="st0" d="M359.659,51.805c-2.602,0-4.718-2.117-4.718-4.719s2.117-4.719,4.718-4.719
						c2.603,0,4.72,2.117,4.72,4.719S362.262,51.805,359.659,51.805z M359.659,44.375c-1.494,0-2.709,1.216-2.709,2.71
						s1.215,2.711,2.709,2.711c1.495,0,2.71-1.216,2.71-2.711S361.153,44.375,359.659,44.375z"/>
				</g>
			</g>
			<g id="XMLID_98_">
				<g id="XMLID_99_">
					<path id="XMLID_105_" class="st0" d="M384.425,51.805c-2.602,0-4.719-2.117-4.719-4.719s2.117-4.719,4.719-4.719
						c2.603,0,4.72,2.117,4.72,4.719S387.027,51.805,384.425,51.805z M384.425,44.375c-1.495,0-2.71,1.216-2.71,2.71
						s1.216,2.711,2.71,2.711s2.71-1.216,2.71-2.711S385.919,44.375,384.425,44.375z"/>
				</g>
			</g>
			<g id="XMLID_93_">
				<g id="XMLID_94_">
					<path id="XMLID_30_" class="st0" d="M396.809,51.805c-2.603,0-4.72-2.117-4.72-4.719s2.117-4.719,4.72-4.719
						s4.72,2.117,4.72,4.719S399.411,51.805,396.809,51.805z M396.809,44.375c-1.495,0-2.71,1.216-2.71,2.71s1.216,2.711,2.71,2.711
						s2.71-1.216,2.71-2.711S398.303,44.375,396.809,44.375z"/>
				</g>
			</g>
			<g id="XMLID_88_">
				<g id="XMLID_89_">
					<path id="XMLID_25_" class="st0" d="M372.042,51.805c-2.603,0-4.72-2.117-4.72-4.719s2.117-4.719,4.72-4.719
						s4.72,2.117,4.72,4.719S374.645,51.805,372.042,51.805z M372.042,44.375c-1.495,0-2.71,1.216-2.71,2.71s1.216,2.711,2.71,2.711
						s2.71-1.216,2.71-2.711S373.537,44.375,372.042,44.375z"/>
				</g>
			</g>
			<g id="XMLID_85_">
				<g id="XMLID_86_">
					<path id="XMLID_18_" class="st0" d="M352.56,69.363c-0.268,0-0.521-0.104-0.712-0.295l-2.414-2.414
						c-0.39-0.392-0.39-1.029,0-1.421c0.19-0.189,0.443-0.293,0.711-0.293c0.268,0,0.52,0.104,0.711,0.294l1.704,1.704l4.548-4.549
						c0.19-0.189,0.443-0.294,0.71-0.294s0.52,0.104,0.71,0.294c0.189,0.19,0.293,0.443,0.293,0.711s-0.104,0.52-0.293,0.709
						l-5.258,5.259C353.08,69.258,352.828,69.363,352.56,69.363z"/>
				</g>
			</g>
		</g>
		<g id="XMLID_1_">
			<path id="XMLID_21_" class="st0" d="M599.563,66.041c-2.342,0-4.656-0.375-6.88-1.117l-7.902-2.634l-0.366,0.767
				c-0.868,1.813-2.723,2.984-4.724,2.984h-12.393c-0.608,0-1.103-0.495-1.103-1.104V27.763c0-0.608,0.494-1.104,1.103-1.104h12.393
				c2.161,0,4.072,1.303,4.866,3.319l0.312,0.779l0.813-0.198c5.693-1.389,10.903-8.983,12.466-15.223l1.124-4.501
				c0.123-0.492,0.563-0.836,1.07-0.836h2.065c4.024,0,7.299,3.274,7.299,7.3v2.063c0,2.08-0.524,6.748-1.651,10.165l-0.416,1.262
				h13.355c2.886,0,5.233,2.348,5.233,5.234c0,1.287-0.475,2.525-1.338,3.488l-0.571,0.642l0.571,0.642
				c0.863,0.962,1.338,2.202,1.338,3.489c0,1.287-0.475,2.525-1.338,3.488l-0.571,0.642l0.571,0.642
				c0.863,0.963,1.338,2.202,1.338,3.49c0,2.354-1.586,4.431-3.857,5.05l-1.036,0.282l0.396,0.999
				c0.244,0.615,0.368,1.264,0.368,1.93c0,2.886-2.348,5.234-5.233,5.234H599.563z M600.286,15.873
				c-0.965,3.868-3.156,8.071-5.86,11.242c-2.692,3.159-5.707,5.132-8.719,5.705l-0.783,0.148V60.01l8.456,2.819
				c1.991,0.666,4.071,1.003,6.183,1.003h17.302c1.668,0,3.025-1.357,3.025-3.026c0-1.669-1.357-3.027-3.025-3.027
				c-0.609,0-1.104-0.495-1.104-1.104c0-0.609,0.495-1.104,1.104-1.104h4.13c1.669,0,3.026-1.357,3.026-3.025
				c0-1.669-1.357-3.027-3.026-3.027h-4.13c-0.609,0-1.104-0.495-1.104-1.104c0-0.608,0.495-1.103,1.104-1.103h4.13
				c1.669,0,3.026-1.358,3.026-3.027s-1.357-3.027-3.026-3.027h-4.13c-0.609,0-1.104-0.495-1.104-1.104
				c0-0.608,0.495-1.103,1.104-1.103h4.13c1.669,0,3.026-1.358,3.026-3.027s-1.357-3.027-3.026-3.027h-20.652
				c-0.608,0-1.104-0.495-1.104-1.104s0.495-1.104,1.104-1.104h4.832l0.258-0.556c1.145-2.447,2.067-7.948,2.067-10.871V17.3
				c0-2.808-2.284-5.092-5.092-5.092h-1.205L600.286,15.873z M568.402,63.833h11.288c1.668,0,3.025-1.357,3.025-3.026V31.894
				c0-1.668-1.357-3.026-3.025-3.026h-11.288V63.833z"/>
			<circle id="XMLID_17_" class="st0" cx="575.559" cy="56.676" r="1.503"/>
			<g id="XMLID_10_">
				<path id="XMLID_47_" class="st0" d="M578.406,89.899c-0.151,0-0.303-0.036-0.442-0.109l-4.298-2.26l-4.299,2.26
					c-0.321,0.169-0.706,0.141-1.001-0.072c-0.292-0.212-0.438-0.573-0.378-0.929l0.821-4.787l-3.478-3.39
					c-0.259-0.252-0.353-0.63-0.24-0.974c0.111-0.344,0.409-0.595,0.767-0.646l4.806-0.698l2.15-4.355
					c0.16-0.324,0.49-0.53,0.852-0.53l0,0c0.361,0,0.692,0.206,0.852,0.53l2.149,4.355l4.807,0.698
					c0.357,0.052,0.655,0.302,0.767,0.646c0.112,0.344,0.019,0.721-0.24,0.974l-3.479,3.39l0.821,4.787
					c0.061,0.356-0.086,0.717-0.378,0.929C578.799,89.838,578.604,89.899,578.406,89.899z M568.036,80.595l2.457,2.395
					c0.224,0.218,0.326,0.533,0.273,0.841l-0.58,3.381l3.037-1.597c0.278-0.146,0.608-0.145,0.885,0l3.036,1.597l-0.58-3.381
					c-0.053-0.308,0.05-0.623,0.273-0.841l2.457-2.395l-3.396-0.494c-0.31-0.045-0.577-0.239-0.715-0.52l-1.519-3.077l-1.52,3.077
					c-0.138,0.28-0.405,0.475-0.715,0.52L568.036,80.595z"/>
				<path id="XMLID_48_" class="st0" d="M591.471,89.899c-0.197,0-0.393-0.062-0.559-0.182c-0.292-0.212-0.438-0.573-0.378-0.929
					l0.821-4.787l-3.478-3.39c-0.259-0.252-0.353-0.63-0.24-0.974c0.111-0.344,0.409-0.595,0.767-0.646l4.806-0.698l2.149-4.355
					c0.318-0.648,1.383-0.648,1.703,0l2.15,4.355l4.806,0.698c0.357,0.052,0.655,0.302,0.767,0.646
					c0.112,0.344,0.019,0.721-0.24,0.974l-3.478,3.39l0.821,4.787c0.061,0.356-0.086,0.717-0.378,0.929
					c-0.294,0.212-0.68,0.24-1.001,0.072l-4.299-2.26l-4.298,2.26C591.773,89.863,591.622,89.899,591.471,89.899z M596.211,85.506
					c0.152,0,0.304,0.037,0.442,0.109l3.037,1.597l-0.58-3.381c-0.053-0.308,0.05-0.623,0.273-0.841l2.457-2.395l-3.396-0.494
					c-0.31-0.045-0.577-0.239-0.715-0.52l-1.52-3.077l-1.519,3.077c-0.138,0.28-0.405,0.475-0.715,0.52l-3.396,0.494l2.457,2.395
					c0.224,0.218,0.326,0.533,0.273,0.841l-0.58,3.381l3.036-1.597C595.907,85.543,596.059,85.506,596.211,85.506z"/>
				<path id="XMLID_7_" class="st0" d="M614.017,89.899c-0.197,0-0.393-0.062-0.559-0.182c-0.292-0.212-0.438-0.573-0.378-0.929
					l0.821-4.787l-3.479-3.39c-0.259-0.252-0.353-0.63-0.24-0.974c0.111-0.344,0.409-0.595,0.767-0.646l4.807-0.698l2.149-4.355
					c0.318-0.648,1.383-0.648,1.703,0l2.15,4.355l4.806,0.698c0.357,0.052,0.655,0.302,0.767,0.646
					c0.112,0.344,0.019,0.721-0.24,0.974l-3.478,3.39l0.821,4.787c0.061,0.356-0.086,0.717-0.378,0.929
					c-0.294,0.212-0.681,0.24-1.001,0.072l-4.299-2.26l-4.298,2.26C614.319,89.863,614.168,89.899,614.017,89.899z M618.757,85.506
					c0.152,0,0.304,0.037,0.442,0.109l3.037,1.597l-0.58-3.381c-0.053-0.308,0.05-0.623,0.273-0.841l2.457-2.395l-3.396-0.494
					c-0.31-0.045-0.577-0.239-0.715-0.52l-1.52-3.077l-1.519,3.077c-0.138,0.28-0.405,0.475-0.715,0.52l-3.396,0.494l2.457,2.395
					c0.224,0.218,0.326,0.533,0.273,0.841l-0.58,3.381l3.036-1.597C618.453,85.543,618.604,85.506,618.757,85.506z"/>
			</g>
		</g>
	</g>
	<g id="XMLID_275_">
		<g id="XMLID_39_">
			<g id="XMLID_64_">
				<g id="XMLID_140_">
					<g id="XMLID_63_">
						<path id="XMLID_272_" d="M175.217,209.589c0.64,0,1.17,0.52,1.17,1.16s-0.53,1.16-1.17,1.16h-3.74
							c-0.64,0-1.16-0.52-1.16-1.16s0.52-1.16,1.16-1.16H175.217z"/>
						<path id="XMLID_271_" d="M172.707,201.869c0.45,0.45,0.45,1.19,0,1.64l-2.65,2.65c-0.22,0.22-0.51,0.34-0.82,0.34
							s-0.6-0.12-0.82-0.34c-0.46-0.46-0.46-1.19,0-1.64l2.64-2.65c0.22-0.22,0.51-0.34,0.83-0.34
							C172.197,201.529,172.487,201.649,172.707,201.869z"/>
						<path id="XMLID_270_" d="M172.707,217.989c0.22,0.22,0.34,0.52,0.34,0.83c0,0.31-0.13,0.6-0.34,0.82
							c-0.22,0.22-0.52,0.34-0.82,0.34c-0.32,0-0.61-0.12-0.83-0.34l-2.64-2.65c-0.46-0.45-0.46-1.19,0-1.64
							c0.22-0.22,0.51-0.34,0.82-0.34s0.6,0.12,0.82,0.34L172.707,217.989z"/>
						<path id="XMLID_269_" d="M164.977,218.409v3.74c0,0.65-0.52,1.17-1.16,1.17s-1.16-0.52-1.16-1.17v-3.74
							c0-0.64,0.52-1.16,1.16-1.16S164.977,217.769,164.977,218.409z"/>
						<path id="XMLID_268_" d="M164.977,199.349v3.74c0,0.64-0.52,1.16-1.16,1.16s-1.16-0.52-1.16-1.16v-3.74
							c0-0.64,0.52-1.16,1.16-1.16S164.977,198.709,164.977,199.349z"/>
						<path id="XMLID_244_" d="M164.827,210.169c0.15,0.27,0.19,0.58,0.11,0.88c-0.96,3.61-4.47,3.72-7.29,3.81
							c-2.68,0.08-4.36,0.23-5.08,1.6l-0.03,0.06l3.04,3.05c0.7,0.69,1.08,1.62,1.08,2.6c0,0.99-0.38,1.91-1.08,2.61l-2.28,2.27
							l0.03,0.06c1.37,3.65,1.72,7.61,1.01,11.46c-0.79,4.24-2.83,8.1-5.89,11.17c-4.03,4.03-9.39,6.25-15.09,6.25
							s-11.05-2.22-15.08-6.25c-4.03-4.03-6.25-9.39-6.25-15.09c0-5.7,2.22-11.05,6.25-15.08c4.03-4.03,9.38-6.25,15.08-6.25
							c2.59,0,5.13,0.46,7.54,1.37l0.06,0.02l2.28-2.28c0.69-0.69,1.62-1.07,2.61-1.07c0.98,0,1.91,0.38,2.6,1.07l2.4,2.41l0.07-0.1
							c0.57-0.75,1.36-1.3,2.35-1.65c1.32-0.46,2.84-0.51,4.31-0.55c3.2-0.11,4.65-0.33,5.12-2.09c0.14-0.51,0.6-0.86,1.12-0.86
							c0.1,0,0.2,0.01,0.3,0.04C164.417,209.709,164.667,209.899,164.827,210.169z M154.337,222.169c0-0.37-0.14-0.71-0.4-0.96
							l-7.13-7.13c-0.26-0.26-0.6-0.4-0.96-0.4c-0.37,0-0.71,0.14-0.97,0.4l-2,2l9.06,9.05l2-2
							C154.197,222.879,154.337,222.539,154.337,222.169z M146.807,248.099c5.43-5.44,7.06-13.54,4.16-20.65l-5.2-5.2l-5.17-5.18
							c-2.33-0.95-4.75-1.43-7.24-1.43c-5.08,0-9.85,1.98-13.44,5.57c-3.59,3.59-5.57,8.36-5.57,13.44c0,5.08,1.98,9.86,5.57,13.45
							c3.59,3.59,8.37,5.57,13.44,5.57C138.437,253.669,143.217,251.689,146.807,248.099z"/>
						<path id="XMLID_240_" d="M159.227,204.519c0.45,0.45,0.45,1.18,0,1.64c-0.22,0.22-0.51,0.34-0.82,0.34s-0.6-0.12-0.82-0.34
							l-2.65-2.65c-0.46-0.45-0.46-1.19,0-1.64c0.22-0.22,0.51-0.34,0.82-0.34c0.31,0,0.6,0.12,0.82,0.34L159.227,204.519z"/>
						<path id="XMLID_238_" class="st1" d="M153.937,221.209c0.26,0.25,0.4,0.59,0.4,0.96c0,0.37-0.14,0.71-0.4,0.96l-2,2
							l-9.06-9.05l2-2c0.26-0.26,0.6-0.4,0.97-0.4c0.36,0,0.7,0.14,0.96,0.4L153.937,221.209z"/>
						<path id="XMLID_236_" d="M144.877,244.539c0.45,0.45,0.45,1.18,0,1.63c-0.24,0.25-0.53,0.37-0.85,0.37
							c-0.31,0-0.6-0.12-0.81-0.34c-0.46-0.45-0.46-1.18-0.01-1.64c0.24-0.24,0.54-0.36,0.85-0.36
							C144.367,244.199,144.657,244.319,144.877,244.539z"/>
						<path id="XMLID_235_" d="M142.077,247.079c0.16,0.26,0.2,0.58,0.12,0.88c-0.07,0.3-0.26,0.55-0.53,0.71
							c-2.51,1.49-5.39,2.28-8.31,2.28c-0.22,0-0.43-0.01-0.65-0.02c-0.31-0.01-0.6-0.14-0.81-0.37c-0.21-0.23-0.31-0.52-0.3-0.83
							c0.02-0.63,0.53-1.12,1.16-1.12c0.23,0.01,0.42,0.02,0.6,0.02c2.51,0,4.97-0.68,7.13-1.96c0.18-0.11,0.38-0.16,0.59-0.16
							C141.487,246.509,141.867,246.729,142.077,247.079z"/>
						<path id="XMLID_229_" d="M134.017,218.369c0.64,0.03,1.13,0.57,1.11,1.21c-0.02,0.62-0.53,1.11-1.16,1.11
							c-0.23-0.01-0.42-0.01-0.61-0.01c-2.5,0-4.97,0.68-7.12,1.96c-0.18,0.1-0.39,0.16-0.59,0.16c-0.41,0-0.79-0.22-1-0.57
							c-0.16-0.27-0.2-0.58-0.13-0.88c0.08-0.3,0.27-0.55,0.53-0.71c2.52-1.49,5.39-2.28,8.32-2.28
							C133.577,218.359,133.797,218.359,134.017,218.369z"/>
						<path id="XMLID_228_" d="M123.517,223.119c0.22,0.22,0.34,0.51,0.33,0.82c0,0.31-0.13,0.6-0.35,0.82
							c-0.23,0.23-0.52,0.35-0.83,0.35c-0.32,0-0.61-0.12-0.83-0.34c-0.45-0.45-0.45-1.18,0-1.64c0.26-0.25,0.55-0.36,0.85-0.36
							C123.007,222.769,123.297,222.889,123.517,223.119z"/>
					</g>
					<g id="XMLID_158_">
					</g>
				</g>
			</g>
		</g>
		<g id="XMLID_62_">
			<g id="XMLID_137_">
				<g id="XMLID_40_">
					<g id="XMLID_61_">
						<path id="XMLID_201_" d="M73.457,195.519c0.23,0.23,0.35,0.54,0.34,0.86c-0.01,0.28-0.29,7-3.11,14.98
							c-2.25,6.4-5.49,11.73-9.6,15.84c-0.92,0.92-1.9,1.82-2.92,2.68l-0.07,0.06l0.05,0.07c2.39,4.07,1.61,7.31,0.54,9.32
							c-2.53,4.73-9.41,7.65-14.33,7.65c-0.46,0-0.88-0.27-1.06-0.71c-0.18-0.43-0.08-0.92,0.25-1.25c2.57-2.56,2.37-5.78,2.25-6.7
							l-0.51-0.54l-0.07,0.02c-2.04,0.86-4.08,1.56-6.05,2.06c-0.27,0.07-0.54,0.11-0.82,0.11c-0.44,0-0.87-0.09-1.29-0.25
							l-0.09-0.04l-0.04,0.09c-0.55,1.2-1.37,2.35-2.36,3.34c-3.19,3.19-11,3.85-11.33,3.87h-0.09c-0.31,0-0.6-0.11-0.81-0.33
							c-0.24-0.24-0.36-0.57-0.34-0.91c0.03-0.33,0.68-8.14,3.87-11.32c0.99-1,2.15-1.81,3.35-2.36l0.08-0.04l-0.03-0.09
							c-0.27-0.7-0.32-1.42-0.15-2.11c0.51-1.97,1.2-4.01,2.06-6.06l0.03-0.06l-0.49-0.49c-0.29-0.06-0.64-0.09-1.07-0.09
							c-1.54,0-3.77,0.4-5.69,2.31c-0.21,0.22-0.5,0.34-0.81,0.34c-0.15,0-0.3-0.03-0.44-0.09c-0.43-0.18-0.71-0.59-0.71-1.06
							c0-4.92,2.93-11.79,7.65-14.32c1.29-0.69,2.65-1.04,4.05-1.04c1.73,0,3.5,0.53,5.27,1.58l0.08,0.04l0.05-0.06
							c0.86-1.03,1.77-2.01,2.68-2.92c4.12-4.12,9.45-7.35,15.84-9.61c7.98-2.82,14.7-3.09,14.99-3.1
							C72.957,195.189,73.238,195.309,73.457,195.519z M71.387,197.699l0.01-0.12l-0.12,0.01c-2.05,0.2-6.21,0.75-10.98,2.24
							l-0.16,0.05l8.97,8.97l0.05-0.16C70.637,203.909,71.188,199.749,71.387,197.699z M68.257,211.329l0.02-0.06l-10.57-10.56
							l-0.06,0.02c-5.74,2.13-10.53,5.09-14.24,8.79c-1.13,1.13-2.22,2.35-3.24,3.62c-2.45,3.04-4.54,6.4-6.19,9.98l-0.03,0.07
							l11.85,11.85l0.06-0.03c3.58-1.66,6.94-3.74,9.99-6.19c1.27-1.02,2.48-2.11,3.61-3.24
							C63.167,221.869,66.128,217.079,68.257,211.329z M56.658,238.249c1.11-2.08,1-4.35-0.31-6.76l-0.06-0.1l-0.09,0.07
							c-2.66,2.02-5.53,3.78-8.55,5.24l-0.1,0.05l0.06,0.1c0.1,0.1,0.29,0.28,0.37,0.6c0.41,1.65,0.2,4.51-1.02,6.79l-0.09,0.19
							l0.2-0.04C50.597,243.659,54.928,241.479,56.658,238.249z M43.377,236.069l0.14-0.06l-10.55-10.55l-0.05,0.14
							c-0.64,1.63-1.17,3.24-1.57,4.79c-0.1,0.39,0.05,0.85,0.38,1.19l5.68,5.67c0.26,0.27,0.6,0.42,0.93,0.42
							c0.09,0,0.17-0.01,0.26-0.04C40.147,237.239,41.757,236.709,43.377,236.069z M37.518,212.789l0.07-0.09l-0.1-0.06
							c-1.3-0.71-2.58-1.08-3.79-1.08c-1.02,0-2.02,0.26-2.96,0.76c-3.23,1.73-5.41,6.07-6.14,9.59l-0.05,0.21l0.19-0.1
							c1.86-0.99,3.7-1.19,4.92-1.19c1.07,0,1.77,0.15,1.85,0.17c0.22,0.05,0.42,0.16,0.59,0.34l0.1,0.06l0.08-0.07
							C33.737,218.309,35.507,215.439,37.518,212.789z M35.088,238.189l-4.29-4.3l-0.06,0.03c-1.15,0.42-2.27,1.15-3.24,2.12
							c-1.91,1.91-2.75,6.48-3.03,8.36l-0.01,0.13l0.13-0.02c1.87-0.27,6.44-1.11,8.35-3.02c0.97-0.97,1.71-2.09,2.13-3.24
							L35.088,238.189z"/>
						<path id="XMLID_173_" class="st1" d="M71.397,197.579l-0.01,0.12c-0.2,2.05-0.75,6.21-2.23,10.99l-0.05,0.16l-8.97-8.97
							l0.16-0.05c4.77-1.49,8.93-2.04,10.98-2.24L71.397,197.579z"/>
						<path id="XMLID_132_" d="M59.318,209.669c2.4,2.39,2.4,6.3,0,8.69c-1.16,1.16-2.7,1.8-4.35,1.8c-1.64,0-3.19-0.64-4.35-1.8
							c-2.4-2.39-2.4-6.3,0-8.69c1.16-1.17,2.71-1.81,4.35-1.81S58.158,208.499,59.318,209.669z M58.818,214.019
							c0-1.03-0.4-2-1.13-2.73c-0.73-0.72-1.69-1.13-2.72-1.13c-1.03,0-1.99,0.41-2.72,1.13c-1.5,1.5-1.5,3.95,0,5.45
							c0.72,0.72,1.69,1.12,2.72,1.12c1.03,0,2-0.4,2.72-1.12C58.417,216.009,58.818,215.039,58.818,214.019z"/>
						<path id="XMLID_121_" class="st1" d="M56.347,231.489c1.31,2.41,1.42,4.68,0.31,6.76c-1.73,3.23-6.06,5.41-9.59,6.14
							l-0.2,0.04l0.09-0.19c1.22-2.28,1.43-5.14,1.02-6.79c-0.08-0.32-0.27-0.5-0.37-0.6l-0.06-0.1l0.1-0.05
							c3.02-1.46,5.89-3.22,8.55-5.24l0.09-0.07L56.347,231.489z"/>
						<path id="XMLID_117_" d="M48.708,220.269c0.22,0.22,0.34,0.51,0.34,0.82c0,0.3-0.12,0.59-0.34,0.81l-1.77,1.77
							c-0.21,0.21-0.5,0.33-0.81,0.33c-0.31,0-0.59-0.12-0.81-0.33c-0.45-0.45-0.45-1.18,0-1.63l1.77-1.77
							c0.21-0.21,0.5-0.33,0.81-0.33C48.208,219.939,48.498,220.059,48.708,220.269z"/>
						<path id="XMLID_116_" d="M43.408,225.579c0.45,0.44,0.45,1.17,0,1.62c-0.22,0.22-0.51,0.34-0.81,0.34
							c-0.31,0-0.6-0.12-0.82-0.34c-0.44-0.45-0.44-1.18,0-1.62c0.22-0.22,0.51-0.34,0.82-0.34
							C42.897,225.239,43.188,225.359,43.408,225.579z"/>
						<path id="XMLID_112_" class="st1" d="M43.518,236.009l-0.14,0.06c-1.62,0.64-3.23,1.17-4.78,1.56
							c-0.09,0.03-0.17,0.04-0.26,0.04c-0.33,0-0.67-0.15-0.93-0.42l-5.68-5.67c-0.33-0.34-0.48-0.8-0.38-1.19
							c0.4-1.55,0.93-3.16,1.57-4.79l0.05-0.14L43.518,236.009z"/>
						<path id="XMLID_111_" d="M39.868,246.789c0.45,0.45,0.45,1.18,0,1.62l-3.53,3.54c-0.22,0.22-0.51,0.34-0.81,0.34
							c-0.31,0-0.6-0.12-0.82-0.34c-0.21-0.22-0.33-0.5-0.33-0.81s0.11-0.6,0.33-0.81l3.54-3.54c0.21-0.22,0.5-0.34,0.81-0.34
							C39.368,246.449,39.658,246.569,39.868,246.789z"/>
						<path id="XMLID_107_" class="st1" d="M37.588,212.699l-0.07,0.09c-2.01,2.65-3.78,5.52-5.24,8.54l-0.08,0.07l-0.1-0.06
							c-0.17-0.18-0.37-0.29-0.59-0.34c-0.08-0.02-0.78-0.17-1.85-0.17c-1.22,0-3.06,0.2-4.92,1.19l-0.19,0.1l0.05-0.21
							c0.73-3.52,2.91-7.86,6.14-9.59c0.94-0.5,1.94-0.76,2.96-0.76c1.21,0,2.49,0.37,3.79,1.08L37.588,212.699z"/>
						<path id="XMLID_106_" d="M31.028,248.559c0.22,0.21,0.34,0.5,0.34,0.81c0,0.31-0.12,0.6-0.34,0.81l-8.46,8.47
							c-0.22,0.22-0.51,0.34-0.82,0.34c-0.3,0-0.59-0.12-0.81-0.34c-0.45-0.45-0.45-1.18,0-1.63l8.47-8.46
							c0.22-0.22,0.5-0.34,0.81-0.34C30.528,248.219,30.817,248.339,31.028,248.559z"/>
						<path id="XMLID_102_" d="M22.198,229.109c0.21,0.22,0.33,0.51,0.33,0.81c0,0.31-0.12,0.6-0.33,0.82l-3.54,3.53
							c-0.22,0.22-0.51,0.34-0.81,0.34c-0.31,0-0.6-0.12-0.82-0.34c-0.44-0.45-0.44-1.18,0-1.62l3.54-3.54
							c0.22-0.22,0.51-0.34,0.81-0.34C21.688,228.769,21.978,228.889,22.198,229.109z"/>
						<path id="XMLID_101_" d="M21.028,248.559c0.22,0.21,0.34,0.5,0.34,0.81c0,0.31-0.12,0.6-0.34,0.81l-8.46,8.47
							c-0.22,0.22-0.51,0.34-0.82,0.34c-0.3,0-0.59-0.12-0.81-0.34c-0.45-0.45-0.45-1.18,0-1.63l8.47-8.46
							c0.22-0.22,0.5-0.34,0.81-0.34C20.528,248.219,20.817,248.339,21.028,248.559z"/>
						<path id="XMLID_100_" d="M20.427,237.949c0.45,0.45,0.45,1.18,0,1.63l-8.47,8.46c-0.22,0.22-0.5,0.34-0.81,0.34
							s-0.6-0.12-0.81-0.34c-0.45-0.44-0.45-1.17,0-1.62l8.46-8.47c0.22-0.22,0.51-0.34,0.81-0.34
							C19.917,237.609,20.208,237.729,20.427,237.949z"/>
					</g>
					<g id="XMLID_65_">
					</g>
				</g>
			</g>
		</g>
		<g id="XMLID_274_">
			<rect id="XMLID_243_" x="248.713" y="232.081" class="st1" width="7.125" height="26.5"/>
			<g id="XMLID_133_">
				<g id="XMLID_239_">
					<g id="XMLID_66_">
						<g>
							<path d="M269.587,232.201v24.6c0,1.81-1.48,3.29-3.29,3.29h-27.59c-1.81,0-3.28-1.48-3.28-3.29v-19.95l-9.52,22.57
								c-0.18,0.42-0.58,0.67-1,0.67c-0.14,0-0.29-0.03-0.42-0.09l-5.12-2.16c-0.55-0.23-0.81-0.87-0.58-1.42l2.99-7.07
								c-0.55,0.16-1.12,0.25-1.68,0.25c-0.79,0-1.57-0.16-2.31-0.47l-2.51-1.06c-0.27-0.12-0.47-0.33-0.58-0.59
								c-0.11-0.27-0.11-0.57,0-0.83l1.88-4.46c0.78-1.84,2.38-3.08,4.2-3.48c-0.18-0.29-0.33-0.59-0.46-0.91
								c-0.6-1.46-0.59-3.07,0.03-4.53l1.88-4.46c0.23-0.55,0.87-0.81,1.42-0.57l2.51,1.06c1.28,0.54,2.3,1.48,2.94,2.7l2.99-7.08
								c0.23-0.55,0.86-0.81,1.42-0.57l5.11,2.15c0.27,0.12,0.48,0.33,0.58,0.6c0.11,0.26,0.11,0.56,0,0.83l-1.35,3.19h30.65
								C269.098,231.121,269.587,231.601,269.587,232.201z M267.418,256.801v-23.52h-10.64v24.64h9.52
								C266.918,257.921,267.418,257.421,267.418,256.801z M254.617,257.921v-24.64h-17.02v23.52c0,0.62,0.5,1.12,1.11,1.12h9.52
								v-19.56c0-0.6,0.49-1.08,1.09-1.08c0.6,0,1.08,0.48,1.08,1.08v19.56H254.617z M224.327,257.581l12.45-29.5l-3.12-1.31
								l-8.1,19.2l-4.35,10.3L224.327,257.581z M227.318,236.221c0.39-0.92,0.4-1.95,0.02-2.88c-0.38-0.93-1.1-1.66-2.02-2.05
								l-1.52-0.63l-1.45,3.45c-0.39,0.92-0.4,1.95-0.02,2.88c0.37,0.93,1.09,1.66,2.02,2.05l1.51,0.63L227.318,236.221z
								 M223.557,245.131l1.46-3.46l-1.51-0.64c-1.92-0.8-4.13,0.1-4.93,2.01l-1.46,3.45l1.51,0.64c0.93,0.39,1.95,0.4,2.88,0.02
								C222.438,246.771,223.167,246.051,223.557,245.131z"/>
							<path d="M269.288,215.461c0.03,0.6-0.43,1.1-1.03,1.13c-1.49,0.06-5.29,0.55-8.42,3.66c-2.71,2.69-3.45,5.85-3.64,7.5
								c-0.07,0.55-0.54,0.96-1.08,0.96c-0.04,0-0.08-0.01-0.13-0.01c-0.59-0.07-1.02-0.61-0.95-1.21c0.23-1.92,1.1-5.63,4.28-8.78
								c3.67-3.64,8.11-4.21,9.85-4.29C268.767,214.391,269.267,214.861,269.288,215.461z"/>
							<path d="M261.818,207.231c1.47,1.53,1.41,3.97-0.13,5.43c-0.74,0.71-1.7,1.06-2.65,1.06c-1.01,0-2.03-0.4-2.78-1.19
								c-0.71-0.74-1.09-1.72-1.06-2.74c0.02-1.03,0.45-1.99,1.19-2.69C257.918,205.631,260.358,205.691,261.818,207.231z
								 M260.198,211.091c0.67-0.63,0.69-1.7,0.05-2.37c-0.32-0.34-0.77-0.52-1.21-0.52c-0.42,0-0.83,0.16-1.16,0.47
								c-0.67,0.63-0.69,1.7-0.05,2.37C258.457,211.711,259.527,211.731,260.198,211.091z"/>
							<path d="M257.038,198.671c0.39,0.28,0.57,0.75,0.49,1.23c-0.09,0.47-0.43,0.84-0.89,0.98l-1.98,0.56l-0.66,1.94
								c-0.15,0.46-0.54,0.78-1.02,0.84c-0.05,0.01-0.11,0.02-0.17,0.02c-0.41,0-0.8-0.21-1.03-0.56l-1.15-1.7l-2.05-0.03
								c-0.48,0-0.91-0.28-1.12-0.71c-0.21-0.43-0.15-0.94,0.15-1.31l1.26-1.62l-0.61-1.96c-0.14-0.46-0.01-0.95,0.33-1.28
								c0.35-0.33,0.85-0.43,1.3-0.27l1.93,0.71l1.67-1.19c0.4-0.28,0.9-0.31,1.32-0.08c0.43,0.23,0.68,0.67,0.66,1.15l-0.08,2.05
								L257.038,198.671z M253.607,199.481l0.65-0.18l-0.55-0.41c-0.33-0.24-0.52-0.64-0.5-1.05l0.02-0.68l-0.55,0.39
								c-0.34,0.24-0.77,0.3-1.16,0.16l-0.63-0.24l0.2,0.65c0.12,0.4,0.04,0.83-0.21,1.15l-0.42,0.53l0.68,0.01
								c0.41,0.01,0.79,0.21,1.02,0.56l0.38,0.56l0.22-0.64C252.887,199.901,253.208,199.601,253.607,199.481z"/>
							<path d="M253.008,217.191c0.29,3.52,0.26,7.08-0.06,10.6c-0.06,0.56-0.53,0.98-1.08,0.98c-0.04,0-0.07,0-0.11,0
								c-0.59-0.06-1.03-0.59-0.97-1.18c0.31-3.39,0.33-6.83,0.06-10.22c-0.25-3.07-0.75-6.13-1.48-9.12
								c-0.15-0.58,0.21-1.17,0.79-1.31c0.58-0.15,1.17,0.21,1.31,0.79C252.227,210.831,252.747,214.011,253.008,217.191z"/>
							<path d="M249.758,227.651c0.06,0.6-0.38,1.13-0.98,1.18c-0.03,0.01-0.06,0.01-0.1,0.01c-0.55,0-1.02-0.42-1.08-0.98
								c-0.18-1.91-0.81-4.75-2.85-7.49c-2.69-3.62-6.3-5.01-8.22-5.52c-0.58-0.15-0.93-0.75-0.77-1.32
								c0.15-0.58,0.74-0.93,1.32-0.78c2.19,0.58,6.33,2.17,9.42,6.33C248.818,222.221,249.557,225.471,249.758,227.651z"/>
							<path d="M244.777,204.011c0.71,0.75,1.08,1.72,1.06,2.75c-0.03,1.02-0.45,1.98-1.19,2.69c-0.72,0.68-1.66,1.06-2.65,1.06
								c-0.03,0-0.07,0-0.1,0c-1.03-0.03-1.98-0.45-2.69-1.19c-1.46-1.54-1.4-3.98,0.13-5.44
								C240.878,202.421,243.318,202.481,244.777,204.011z M243.148,207.881c0.67-0.64,0.7-1.7,0.06-2.37
								c-0.33-0.35-0.77-0.52-1.22-0.52c-0.41,0-0.83,0.15-1.15,0.46c-0.67,0.64-0.7,1.7-0.06,2.37
								C241.417,208.491,242.477,208.521,243.148,207.881z"/>
							<path class="st1" d="M227.337,233.341c0.38,0.93,0.37,1.96-0.02,2.88l-1.46,3.45l-1.51-0.63c-0.93-0.39-1.65-1.12-2.02-2.05
								c-0.38-0.93-0.37-1.96,0.02-2.88l1.45-3.45l1.52,0.63C226.238,231.681,226.958,232.411,227.337,233.341z"/>
							<path class="st1" d="M225.018,241.671l-1.46,3.46c-0.39,0.92-1.12,1.64-2.05,2.02c-0.93,0.38-1.95,0.37-2.88-0.02l-1.51-0.64
								l1.46-3.45c0.8-1.91,3.01-2.81,4.93-2.01L225.018,241.671z"/>
						</g>
						<g>
						</g>
					</g>
				</g>
			</g>
		</g>
	</g>
	<polyline id="XMLID_44_" class="st2" points="146.251,137.183 142.808,142.415 139.345,137.169 	"/>
	<g id="XMLID_13_">
		<g id="XMLID_279_">
			<path id="XMLID_16_" d="M324.915,139.413l-8.963-8.963c-0.211-0.211-0.549-0.211-0.761,0c-0.211,0.211-0.211,0.549,0,0.761
				l8.581,8.581l-8.581,8.581c-0.211,0.211-0.211,0.549,0,0.761c0.104,0.104,0.243,0.159,0.378,0.159s0.275-0.052,0.378-0.159
				l8.963-8.963C325.122,139.963,325.122,139.62,324.915,139.413z"/>
		</g>
		<g id="XMLID_280_">
			<path id="XMLID_281_" d="M378.388,139.314l-11.322-11.322c-0.267-0.267-0.694-0.267-0.961,0c-0.267,0.267-0.267,0.694,0,0.961
				l10.839,10.839l-10.839,10.839c-0.267,0.267-0.267,0.694,0,0.961c0.131,0.131,0.307,0.201,0.478,0.201
				c0.171,0,0.347-0.065,0.478-0.201l11.322-11.322C378.65,140.008,378.65,139.575,378.388,139.314z"/>
		</g>
		<g id="XMLID_70_">
			<path id="XMLID_71_" d="M267.753,139.413l8.963-8.963c0.211-0.211,0.549-0.211,0.76,0c0.211,0.211,0.211,0.549,0,0.761
				l-8.581,8.581l8.581,8.581c0.211,0.211,0.211,0.549,0,0.761c-0.104,0.104-0.243,0.159-0.378,0.159
				c-0.135,0-0.275-0.052-0.378-0.159l-8.963-8.963C267.546,139.963,267.546,139.62,267.753,139.413z"/>
		</g>
		<g id="XMLID_57_">
			<path id="XMLID_68_" d="M214.28,139.314l11.322-11.322c0.267-0.267,0.694-0.267,0.961,0c0.267,0.267,0.267,0.694,0,0.961
				l-10.839,10.839l10.839,10.839c0.267,0.267,0.267,0.694,0,0.961c-0.131,0.131-0.307,0.201-0.478,0.201s-0.347-0.065-0.478-0.201
				l-11.322-11.322C214.019,140.008,214.019,139.575,214.28,139.314z"/>
		</g>
	</g>
	<g id="XMLID_14_">
		<path id="XMLID_15_" class="st0" d="M96.862,143.746c2.367,2.83,5.217,5.058,8.469,6.634c1.238,0.587,2.894,1.283,4.739,1.402
			c0.114,0.005,0.224,0.01,0.338,0.01c1.238,0,2.233-0.428,3.044-1.308c0.005-0.005,0.015-0.015,0.02-0.025
			c0.288-0.348,0.617-0.661,0.96-0.995c0.234-0.224,0.472-0.458,0.701-0.696c1.059-1.104,1.059-2.506-0.01-3.576l-2.989-2.989
			c-0.507-0.527-1.114-0.806-1.751-0.806c-0.637,0-1.248,0.278-1.77,0.801l-1.78,1.78c-0.164-0.094-0.333-0.179-0.492-0.259
			c-0.199-0.099-0.383-0.194-0.547-0.298c-1.621-1.029-3.093-2.372-4.501-4.098c-0.711-0.9-1.189-1.656-1.522-2.427
			c0.467-0.423,0.905-0.865,1.328-1.298c0.149-0.154,0.303-0.308,0.458-0.462c0.537-0.537,0.826-1.159,0.826-1.79
			s-0.283-1.253-0.826-1.79l-1.482-1.482c-0.174-0.174-0.338-0.343-0.507-0.517c-0.328-0.338-0.671-0.686-1.01-1
			c-0.512-0.502-1.114-0.766-1.751-0.766c-0.632,0-1.238,0.264-1.77,0.771l-1.86,1.86c-0.676,0.676-1.059,1.497-1.139,2.447
			c-0.094,1.189,0.124,2.452,0.691,3.978C93.6,139.21,94.913,141.403,96.862,143.746z M93.252,132.974
			c0.06-0.661,0.313-1.213,0.791-1.691l1.85-1.85c0.288-0.278,0.607-0.423,0.915-0.423c0.303,0,0.612,0.144,0.895,0.433
			c0.333,0.308,0.646,0.632,0.985,0.975c0.169,0.174,0.343,0.348,0.517,0.527l1.482,1.482c0.308,0.308,0.467,0.622,0.467,0.93
			s-0.159,0.622-0.467,0.93c-0.154,0.154-0.308,0.313-0.462,0.467c-0.462,0.467-0.895,0.91-1.373,1.333
			c-0.01,0.01-0.015,0.015-0.025,0.025c-0.413,0.413-0.348,0.806-0.249,1.104c0.005,0.015,0.01,0.025,0.015,0.04
			c0.383,0.92,0.915,1.795,1.746,2.84c1.492,1.84,3.063,3.267,4.794,4.366c0.214,0.139,0.443,0.249,0.656,0.358
			c0.199,0.099,0.383,0.194,0.547,0.298c0.02,0.01,0.035,0.02,0.055,0.03c0.164,0.085,0.323,0.124,0.482,0.124
			c0.398,0,0.656-0.254,0.741-0.338l1.86-1.86c0.288-0.288,0.602-0.443,0.91-0.443c0.378,0,0.686,0.234,0.88,0.443l2.999,2.994
			c0.597,0.597,0.592,1.243-0.015,1.875c-0.209,0.224-0.428,0.438-0.661,0.661c-0.348,0.338-0.711,0.686-1.039,1.079
			c-0.572,0.617-1.253,0.905-2.133,0.905c-0.085,0-0.174-0.005-0.259-0.01c-1.631-0.104-3.148-0.741-4.287-1.283
			c-3.093-1.497-5.809-3.62-8.061-6.316c-1.855-2.233-3.103-4.312-3.929-6.54C93.366,135.073,93.172,133.974,93.252,132.974z"/>
	</g>
	<g id="XMLID_32_">
		<rect id="XMLID_237_" x="47.841" y="133.168" class="st0" width="20.333" height="13.083"/>
		<g id="XMLID_33_">
			<path class="st3" d="M47.478,132.792v14h21.12v-14H47.478z M58.039,141.438l-8.663-7.607h17.325L58.039,141.438z M54.588,139.79
				l-6.071,5.331v-10.663L54.588,139.79z M55.375,140.481l2.664,2.339l2.664-2.339l6.005,5.273H49.37L55.375,140.481z
				 M61.489,139.79l6.071-5.332v10.663L61.489,139.79z"/>
		</g>
	</g>
	<g id="XMLID_34_">
		<path id="XMLID_287_" class="st0" d="M22.89,136.822c0,1.06-0.29,2.1-0.83,3l-4.94,8.26l-5.08-8.18
			c-0.57-0.93-0.88-1.99-0.88-3.08c0-3.23,2.64-5.87,5.87-5.87S22.89,133.592,22.89,136.822z M17.03,140.332
			c1.99,0,3.51-1.61,3.51-3.51c0-1.94-1.57-3.52-3.51-3.52s-3.52,1.58-3.52,3.52C13.51,138.742,15.06,140.332,17.03,140.332z"/>
		<path id="XMLID_290_" class="st3" d="M24.06,136.822c0,1.27-0.35,2.51-0.99,3.6l-5.44,9.08c-0.11,0.18-0.3,0.29-0.5,0.29
			c0,0,0,0-0.01,0c-0.2,0-0.39-0.11-0.49-0.28l-5.59-8.99c-0.68-1.11-1.04-2.39-1.04-3.7c0-3.88,3.15-7.03,7.03-7.03
			C20.9,129.792,24.06,132.942,24.06,136.822z M22.06,139.822c0.54-0.9,0.83-1.94,0.83-3c0-3.23-2.63-5.87-5.86-5.87
			s-5.87,2.64-5.87,5.87c0,1.09,0.31,2.15,0.88,3.08l5.08,8.18L22.06,139.822z"/>
		<path id="XMLID_284_" class="st3" d="M20.54,136.822c0,1.9-1.52,3.51-3.51,3.51c-1.97,0-3.52-1.59-3.52-3.51
			c0-1.94,1.58-3.52,3.52-3.52S20.54,134.882,20.54,136.822z M17.03,139.172c1.32,0,2.34-1.08,2.34-2.35c0-1.29-1.05-2.35-2.34-2.35
			c-1.3,0-2.35,1.06-2.35,2.35C14.68,138.112,15.73,139.172,17.03,139.172z"/>
	</g>
	<g id="XMLID_241_">
		<g id="XMLID_299_">
			<path id="XMLID_300_" class="st4" d="M415.681,135.018c0.068-0.138,0.209-0.226,0.364-0.226s0.295,0.088,0.364,0.226l1.304,2.643
				c0.059,0.12,0.173,0.202,0.306,0.222l2.916,0.424c0.153,0.022,0.28,0.129,0.327,0.276c0.048,0.147,0.008,0.308-0.103,0.416
				l-2.11,2.057c-0.096,0.093-0.139,0.227-0.117,0.359l0.498,2.905c0.026,0.152-0.036,0.306-0.162,0.397
				c-0.125,0.09-0.29,0.102-0.427,0.031l-2.608-1.372c-0.118-0.062-0.259-0.062-0.377,0l-2.608,1.371
				c-0.136,0.072-0.302,0.06-0.427-0.031c-0.125-0.091-0.187-0.244-0.161-0.397l0.498-2.905c0.023-0.132-0.021-0.266-0.117-0.359
				l-2.11-2.057c-0.111-0.108-0.15-0.269-0.103-0.416c0.048-0.147,0.174-0.254,0.327-0.276l2.917-0.424
				c0.132-0.019,0.246-0.102,0.305-0.222L415.681,135.018z"/>
		</g>
		<g id="XMLID_276_">
			<path id="XMLID_301_" class="st4" d="M428.735,135.018c0.068-0.138,0.209-0.226,0.364-0.226s0.295,0.088,0.364,0.226l1.304,2.643
				c0.059,0.12,0.173,0.202,0.306,0.222l2.916,0.424c0.153,0.022,0.28,0.129,0.327,0.276c0.048,0.147,0.008,0.308-0.103,0.416
				l-2.11,2.057c-0.096,0.093-0.139,0.227-0.117,0.359l0.498,2.905c0.026,0.152-0.036,0.306-0.162,0.397
				c-0.125,0.09-0.29,0.102-0.427,0.031l-2.608-1.372c-0.118-0.062-0.259-0.062-0.377,0l-2.608,1.371
				c-0.136,0.072-0.302,0.06-0.427-0.031s-0.187-0.244-0.161-0.397l0.498-2.905c0.023-0.132-0.021-0.266-0.117-0.359l-2.11-2.057
				c-0.111-0.108-0.15-0.269-0.103-0.416c0.048-0.147,0.174-0.254,0.327-0.276l2.917-0.424c0.132-0.019,0.246-0.102,0.305-0.222
				L428.735,135.018z"/>
		</g>
		<g id="XMLID_302_">
			<path id="XMLID_303_" class="st4" d="M441.788,135.018c0.068-0.138,0.209-0.226,0.364-0.226s0.295,0.088,0.364,0.226l1.304,2.643
				c0.059,0.12,0.173,0.202,0.306,0.222l2.916,0.424c0.153,0.022,0.28,0.129,0.327,0.276c0.048,0.147,0.008,0.308-0.103,0.416
				l-2.11,2.057c-0.096,0.093-0.139,0.227-0.117,0.359l0.498,2.905c0.026,0.152-0.036,0.306-0.162,0.397
				c-0.125,0.09-0.29,0.102-0.427,0.031l-2.608-1.372c-0.118-0.062-0.259-0.062-0.377,0l-2.608,1.371
				c-0.136,0.072-0.302,0.06-0.427-0.031s-0.187-0.244-0.161-0.397l0.498-2.905c0.023-0.132-0.021-0.266-0.117-0.359l-2.11-2.057
				c-0.111-0.108-0.15-0.269-0.103-0.416c0.048-0.147,0.174-0.254,0.327-0.276l2.917-0.424c0.132-0.019,0.246-0.102,0.305-0.222
				L441.788,135.018z"/>
		</g>
		<g id="XMLID_304_">
			<path id="XMLID_305_" class="st4" d="M454.842,135.018c0.068-0.138,0.209-0.226,0.364-0.226s0.295,0.088,0.364,0.226l1.304,2.643
				c0.059,0.12,0.173,0.202,0.306,0.222l2.916,0.424c0.153,0.022,0.28,0.129,0.327,0.276c0.048,0.147,0.008,0.308-0.103,0.416
				l-2.11,2.057c-0.096,0.093-0.139,0.227-0.117,0.359l0.498,2.905c0.026,0.152-0.036,0.306-0.162,0.397
				c-0.125,0.09-0.29,0.102-0.427,0.031l-2.608-1.372c-0.118-0.062-0.259-0.062-0.377,0l-2.608,1.371
				c-0.136,0.072-0.302,0.06-0.427-0.031c-0.125-0.091-0.187-0.244-0.161-0.397l0.498-2.905c0.023-0.132-0.021-0.266-0.117-0.359
				l-2.11-2.057c-0.111-0.108-0.15-0.269-0.103-0.416c0.048-0.147,0.174-0.254,0.327-0.276l2.917-0.424
				c0.132-0.019,0.246-0.102,0.305-0.222L454.842,135.018z"/>
		</g>
		<g id="XMLID_306_">
			<path id="XMLID_307_" class="st4" d="M467.895,135.018c0.068-0.138,0.209-0.226,0.364-0.226s0.295,0.088,0.364,0.226l1.304,2.643
				c0.059,0.12,0.173,0.202,0.306,0.222l2.916,0.424c0.153,0.022,0.28,0.129,0.327,0.276c0.048,0.147,0.008,0.308-0.103,0.416
				l-2.11,2.057c-0.096,0.093-0.139,0.227-0.117,0.359l0.498,2.905c0.026,0.152-0.036,0.306-0.162,0.397
				c-0.125,0.09-0.29,0.102-0.427,0.031l-2.608-1.372c-0.118-0.062-0.259-0.062-0.377,0l-2.608,1.371
				c-0.136,0.072-0.302,0.06-0.427-0.031c-0.125-0.091-0.187-0.244-0.161-0.397l0.498-2.905c0.023-0.132-0.021-0.266-0.117-0.359
				l-2.11-2.057c-0.111-0.108-0.15-0.269-0.103-0.416c0.048-0.147,0.174-0.254,0.327-0.276l2.917-0.424
				c0.132-0.019,0.246-0.102,0.305-0.222L467.895,135.018z"/>
		</g>
	</g>
	<g id="XMLID_308_">
		<path id="XMLID_320_" d="M592.421,145.812c-0.865,0-2.202-0.129-3.663-0.747c-1.589-0.672-2.992-1.774-4.171-3.275
			c-1.448-1.843-2.558-4.3-3.299-7.301l-0.176-0.714h5.807l0.056,0.514c0.229,2.096,1.107,3.266,1.804,3.878l0.166,0.146v-3.386
			h-0.57v-1.152h5.908v4.984l0.156-0.107c0.121-0.083,0.255-0.187,0.394-0.316c1.113-1.029,1.752-2.813,2.091-4.129l0.111-0.432
			h6.75l-4.513,6.822l4.491,5.096h-7.026l-2.391-2.112l-0.028,1.995l-0.439,0.103C593.819,145.691,593.268,145.812,592.421,145.812z
			 M582.628,135.053c0.686,2.435,1.638,4.447,2.831,5.98c1.047,1.346,2.284,2.335,3.679,2.94c1.301,0.564,2.507,0.682,3.289,0.682
			c0.257,0,0.48-0.012,0.661-0.028l0.09-0.008l0.051-3.539l3.948,3.434l4.035,0.024l-3.388-3.844l3.817-5.77h-3.72l-0.021,0.072
			c-0.572,1.968-1.388,3.417-2.426,4.305c-0.903,0.775-1.656,0.834-1.739,0.838l-0.606,0.032v-5.248h-3.032v5.205l-0.771-0.274
			c-0.112-0.04-2.753-1.015-3.414-4.847l-0.015-0.083h-3.306L582.628,135.053z"/>
		<g id="XMLID_317_">
			<path id="XMLID_319_" d="M653.983,147.41h14.141c1.615,0,2.93-1.314,2.93-2.93v-9.375c0-1.615-1.314-2.93-2.93-2.93h-14.141
				c-1.615,0-2.93,1.314-2.93,2.93v9.375C651.054,146.096,652.368,147.41,653.983,147.41z M652.226,135.106
				c0-0.969,0.789-1.758,1.758-1.758h14.141c0.969,0,1.758,0.789,1.758,1.758v9.375c0,0.969-0.789,1.758-1.758,1.758h-14.141
				c-0.969,0-1.758-0.789-1.758-1.758V135.106z"/>
			<path id="XMLID_318_" d="M658.124,135.868v7.965l7.051-4.048L658.124,135.868z M659.296,137.859l3.496,1.942l-3.496,2.007
				V137.859z"/>
		</g>
		<g id="XMLID_310_">
			<g id="XMLID_315_">
				<path id="XMLID_316_" d="M634.49,129.793h-14.141c-1.615,0-2.93,1.314-2.93,2.93v14.14c0,1.616,1.314,2.93,2.93,2.93h14.141
					c1.616,0,2.93-1.314,2.93-2.93v-14.14C637.419,131.107,636.105,129.793,634.49,129.793z M636.247,146.863
					c0,0.969-0.789,1.758-1.758,1.758h-14.141c-0.969,0-1.758-0.789-1.758-1.758v-14.14c0-0.969,0.789-1.758,1.758-1.758h14.141
					c0.969,0,1.758,0.789,1.758,1.758V146.863z"/>
			</g>
			<g id="XMLID_313_">
				<path id="XMLID_314_" d="M633.865,132.176c-0.646,0-1.172,0.526-1.172,1.172c0,0.646,0.526,1.172,1.172,1.172
					s1.172-0.526,1.172-1.172C635.037,132.702,634.511,132.176,633.865,132.176z"/>
			</g>
			<g id="XMLID_311_">
				<path id="XMLID_312_" d="M627.419,134.52c-2.908,0-5.273,2.366-5.273,5.273s2.366,5.273,5.273,5.273
					c2.908,0,5.273-2.366,5.273-5.273S630.327,134.52,627.419,134.52z M627.419,143.895c-2.262,0-4.102-1.84-4.102-4.102
					c0-2.262,1.84-4.102,4.102-4.102c2.262,0,4.102,1.84,4.102,4.102C631.521,142.055,629.681,143.895,627.419,143.895z"/>
			</g>
		</g>
		<path id="XMLID_309_" d="M531.653,134.224c0.356,0,0.645-0.289,0.645-0.645v-4.142c0-0.356-0.289-0.645-0.645-0.645h-4.833
			c-2.259,0-4.096,1.838-4.096,4.096v4.188h-2.669c-0.356,0-0.645,0.289-0.645,0.645v4.142c0,0.356,0.289,0.645,0.645,0.645h2.669
			v7.64c0,0.356,0.289,0.645,0.645,0.645h4.142c0.356,0,0.645-0.289,0.645-0.645v-7.64h2.669c0.307,0,0.572-0.217,0.632-0.518
			l0.828-4.142c0.038-0.189-0.011-0.386-0.134-0.535c-0.122-0.149-0.305-0.236-0.498-0.236h-3.498v-2.853H531.653z M527.511,138.366
			h3.356l-0.571,2.853h-2.785c-0.356,0-0.645,0.289-0.645,0.645v7.64h-2.853v-7.64c0-0.356-0.289-0.645-0.645-0.645h-2.669v-2.853
			h2.669c0.356,0,0.645-0.289,0.645-0.645v-4.833c0-1.548,1.259-2.807,2.807-2.807h4.188v2.853h-3.498
			c-0.356,0-0.645,0.289-0.645,0.645v4.142C526.866,138.078,527.155,138.366,527.511,138.366z"/>
		<path id="XMLID_321_" d="M553.888,148.696c-0.949,0-1.924-0.078-2.899-0.23c-1.724-0.271-3.464-1.171-3.956-1.441l-1.101-0.602
			l1.192-0.392c1.55-0.511,2.484-0.823,3.65-1.318l0.203-0.086l-0.198-0.096c-1.157-0.561-2.023-1.565-2.439-2.828l-0.278-0.842
			l0.407,0.062l-0.212-0.215c-0.225-0.227-0.426-0.476-0.601-0.74c-0.544-0.826-0.833-1.834-0.771-2.698l0.053-0.735l0.644,0.25
			l-0.125-0.237c-0.216-0.407-0.371-0.843-0.462-1.295c-0.223-1.11-0.036-2.29,0.526-3.321l0.383-0.704l0.513,0.616
			c1.933,2.323,4.388,3.705,7.297,4.108l0.132,0.018l-0.019-0.131c-0.254-1.749,0.463-3.282,1.966-4.206
			c0.792-0.487,1.715-0.744,2.671-0.744c1.224,0,2.38,0.433,3.255,1.219c0.625-0.123,2.49-0.792,3.109-1.017l-0.801,2.287
			l0.154-0.013c0.099-0.008,1.298-0.062,1.298-0.062c-0.377,0.516-1.522,2.083-1.976,2.688c-0.287,0.384-0.43,0.881-0.403,1.4
			c0.186,3.635-0.876,6.601-3.07,8.577C559.527,148.223,556.221,148.696,553.888,148.696L553.888,148.696z M552.879,144.956
			c-1.7,0.804-2.68,1.183-3.895,1.601l-0.251,0.086l0.246,0.101c0.8,0.328,1.533,0.546,2.178,0.647
			c0.929,0.146,1.85,0.22,2.735,0.22c3.024,0,5.655-0.87,7.41-2.45c1.97-1.774,2.882-4.369,2.71-7.711
			c-0.039-0.774,0.182-1.523,0.619-2.108l0.607-0.813h-0.769l0.578-1.652l-0.196,0.07c-0.264,0.094-0.533,0.181-0.863,0.262
			c-0.078,0.02-0.16,0.03-0.241,0.03c-0.265,0-0.521-0.103-0.725-0.29c-0.87-0.801-1.864-0.969-2.546-0.969
			c-0.754,0-1.506,0.207-2.117,0.582c-0.608,0.374-1.959,1.479-1.344,3.655c0.023,0.082,0.027,0.097,0.116,0.951
			c-0.067-0.005-0.151-0.011-0.253-0.016c-1.283-0.071-5.187-0.289-8.6-3.829l-0.124-0.128l-0.045,0.172
			c-0.384,1.474,0.165,3.003,1.434,3.993l1.481,1.156l-1.869-0.185c-0.437-0.043-0.713-0.087-0.954-0.152l-0.168-0.045l0.045,0.168
			c0.103,0.376,0.266,0.736,0.485,1.069c0.361,0.548,1.042,1.262,2.234,1.554l2.02,0.495l-2.003,0.558
			c-0.306,0.085-0.608,0.135-0.925,0.154l-0.172,0.01l0.094,0.145c0.636,0.977,1.654,1.558,2.869,1.635l2.1,0.134L552.879,144.956z"
			/>
	</g>
	<g id="XMLID_322_">
		<polyline id="XMLID_326_" class="st5" points="181.599,135.792 173.599,143.792 169.669,139.862 		"/>
	</g>
</g>
</svg>
